<mxfile host="Electron" modified="2024-04-07T06:23:06.730Z" agent="Mozilla/5.0 (Windows NT 10.0; Win64; x64) AppleWebKit/537.36 (KHTML, like Gecko) draw.io/24.1.0 Chrome/120.0.6099.109 Electron/28.1.0 Safari/537.36" etag="o1VE-Ux-CR-W0vuIk9CU" version="24.1.0" type="device">
  <diagram name="第 1 页" id="9g8P3RWRX6Sg8x3JM8hz">
    <mxGraphModel dx="975" dy="620" grid="0" gridSize="10" guides="1" tooltips="1" connect="1" arrows="1" fold="1" page="1" pageScale="1" pageWidth="827" pageHeight="1169" math="0" shadow="0">
      <root>
        <mxCell id="0" />
        <mxCell id="1" parent="0" />
        <mxCell id="vd2-MDgw4LqcnlgiZA0H-58" value="" style="rounded=0;whiteSpace=wrap;html=1;strokeColor=none;fillColor=none;" vertex="1" parent="1">
          <mxGeometry x="13" y="20" width="807" height="451" as="geometry" />
        </mxCell>
        <mxCell id="vd2-MDgw4LqcnlgiZA0H-1" value="&lt;font face=&quot;Verdana&quot;&gt;This is an Apple.&lt;/font&gt;&lt;div&gt;&lt;font face=&quot;Y5xPnwUScTU3hKyV-p1S&quot;&gt;&lt;br&gt;&lt;/font&gt;&lt;/div&gt;&lt;div&gt;&lt;font face=&quot;Y5xPnwUScTU3hKyV-p1S&quot;&gt;Apple is red in color.&lt;/font&gt;&lt;/div&gt;" style="whiteSpace=wrap;html=1;aspect=fixed;fillColor=#90C9E6;strokeColor=#808080;" vertex="1" parent="1">
          <mxGeometry x="22" y="182" width="117" height="117" as="geometry" />
        </mxCell>
        <mxCell id="vd2-MDgw4LqcnlgiZA0H-2" value="" style="endArrow=classic;html=1;rounded=0;" edge="1" parent="1">
          <mxGeometry width="50" height="50" relative="1" as="geometry">
            <mxPoint x="141" y="222" as="sourcePoint" />
            <mxPoint x="191" y="172" as="targetPoint" />
          </mxGeometry>
        </mxCell>
        <mxCell id="vd2-MDgw4LqcnlgiZA0H-3" value="" style="endArrow=classic;html=1;rounded=0;" edge="1" parent="1">
          <mxGeometry width="50" height="50" relative="1" as="geometry">
            <mxPoint x="143" y="248" as="sourcePoint" />
            <mxPoint x="189" y="293" as="targetPoint" />
          </mxGeometry>
        </mxCell>
        <mxCell id="vd2-MDgw4LqcnlgiZA0H-4" value="&lt;font face=&quot;Verdana&quot;&gt;This is an Apple&lt;/font&gt;" style="rounded=0;whiteSpace=wrap;html=1;strokeColor=#808080;fillColor=#FFB703;" vertex="1" parent="1">
          <mxGeometry x="195" y="142" width="74" height="48" as="geometry" />
        </mxCell>
        <mxCell id="vd2-MDgw4LqcnlgiZA0H-5" value="&lt;font face=&quot;Verdana&quot;&gt;Apple is&amp;nbsp;&lt;/font&gt;&lt;div&gt;&lt;font face=&quot;Verdana&quot;&gt;red in&amp;nbsp;&lt;/font&gt;&lt;/div&gt;&lt;div&gt;&lt;font face=&quot;Verdana&quot;&gt;color&lt;/font&gt;&lt;/div&gt;" style="rounded=0;whiteSpace=wrap;html=1;strokeColor=#808080;fillColor=#FFB703;" vertex="1" parent="1">
          <mxGeometry x="195" y="270" width="74" height="55" as="geometry" />
        </mxCell>
        <mxCell id="vd2-MDgw4LqcnlgiZA0H-7" value="" style="endArrow=classic;html=1;rounded=0;" edge="1" parent="1">
          <mxGeometry width="50" height="50" relative="1" as="geometry">
            <mxPoint x="271" y="164" as="sourcePoint" />
            <mxPoint x="321" y="114" as="targetPoint" />
          </mxGeometry>
        </mxCell>
        <mxCell id="vd2-MDgw4LqcnlgiZA0H-8" value="" style="endArrow=classic;html=1;rounded=0;" edge="1" parent="1">
          <mxGeometry width="50" height="50" relative="1" as="geometry">
            <mxPoint x="273" y="299" as="sourcePoint" />
            <mxPoint x="319" y="344" as="targetPoint" />
          </mxGeometry>
        </mxCell>
        <mxCell id="vd2-MDgw4LqcnlgiZA0H-9" value="&lt;font face=&quot;Verdana&quot;&gt;&lt;b&gt;Input&lt;/b&gt;&lt;/font&gt;" style="text;html=1;align=center;verticalAlign=middle;whiteSpace=wrap;rounded=0;" vertex="1" parent="1">
          <mxGeometry x="50.5" y="151" width="60" height="30" as="geometry" />
        </mxCell>
        <mxCell id="vd2-MDgw4LqcnlgiZA0H-10" value="&lt;font face=&quot;Verdana&quot;&gt;&lt;b&gt;Input Split&lt;/b&gt;&lt;/font&gt;" style="text;html=1;align=center;verticalAlign=middle;whiteSpace=wrap;rounded=0;" vertex="1" parent="1">
          <mxGeometry x="187" y="108" width="88" height="30" as="geometry" />
        </mxCell>
        <mxCell id="vd2-MDgw4LqcnlgiZA0H-11" value="&lt;font face=&quot;Verdana&quot;&gt;&lt;b&gt;Mapping&lt;/b&gt;&lt;/font&gt;" style="text;html=1;align=center;verticalAlign=middle;whiteSpace=wrap;rounded=0;" vertex="1" parent="1">
          <mxGeometry x="318" y="39" width="88" height="30" as="geometry" />
        </mxCell>
        <mxCell id="vd2-MDgw4LqcnlgiZA0H-12" value="&lt;font face=&quot;Verdana&quot;&gt;This-1&lt;/font&gt;&lt;div&gt;&lt;font face=&quot;Verdana&quot;&gt;&lt;br&gt;&lt;/font&gt;&lt;div&gt;&lt;font face=&quot;Verdana&quot;&gt;Is-1&lt;/font&gt;&lt;/div&gt;&lt;div&gt;&lt;font face=&quot;Verdana&quot;&gt;&lt;br&gt;&lt;/font&gt;&lt;/div&gt;&lt;div&gt;&lt;font face=&quot;Verdana&quot;&gt;An-1&lt;/font&gt;&lt;/div&gt;&lt;div&gt;&lt;font face=&quot;Verdana&quot;&gt;&lt;br&gt;&lt;/font&gt;&lt;/div&gt;&lt;div&gt;&lt;font face=&quot;Verdana&quot;&gt;Apple-1&lt;/font&gt;&lt;/div&gt;&lt;/div&gt;" style="rounded=0;whiteSpace=wrap;html=1;fillColor=#219EBC;strokeColor=#808080;" vertex="1" parent="1">
          <mxGeometry x="325" y="69" width="71" height="136" as="geometry" />
        </mxCell>
        <mxCell id="vd2-MDgw4LqcnlgiZA0H-13" value="&lt;font face=&quot;Verdana&quot;&gt;Apple-1&lt;/font&gt;&lt;div&gt;&lt;font face=&quot;Verdana&quot;&gt;&lt;br&gt;&lt;/font&gt;&lt;div&gt;&lt;font face=&quot;Verdana&quot;&gt;Is-1&lt;/font&gt;&lt;/div&gt;&lt;div&gt;&lt;font face=&quot;Verdana&quot;&gt;&lt;br&gt;&lt;/font&gt;&lt;/div&gt;&lt;div&gt;&lt;font face=&quot;Verdana&quot;&gt;Red-1&lt;/font&gt;&lt;/div&gt;&lt;div&gt;&lt;font face=&quot;Verdana&quot;&gt;&lt;br&gt;&lt;/font&gt;&lt;/div&gt;&lt;div&gt;&lt;font face=&quot;Verdana&quot;&gt;In-1&lt;/font&gt;&lt;/div&gt;&lt;/div&gt;&lt;div&gt;&lt;font face=&quot;Verdana&quot;&gt;&lt;br&gt;&lt;/font&gt;&lt;/div&gt;&lt;div&gt;&lt;font face=&quot;Verdana&quot;&gt;Color-1&lt;/font&gt;&lt;/div&gt;" style="rounded=0;whiteSpace=wrap;html=1;fillColor=#219EBC;strokeColor=#808080;" vertex="1" parent="1">
          <mxGeometry x="326.5" y="281" width="71" height="163" as="geometry" />
        </mxCell>
        <mxCell id="vd2-MDgw4LqcnlgiZA0H-14" value="" style="endArrow=classic;html=1;rounded=0;" edge="1" parent="1">
          <mxGeometry width="50" height="50" relative="1" as="geometry">
            <mxPoint x="398" y="88" as="sourcePoint" />
            <mxPoint x="453" y="71" as="targetPoint" />
          </mxGeometry>
        </mxCell>
        <mxCell id="vd2-MDgw4LqcnlgiZA0H-15" value="&lt;font face=&quot;Verdana&quot;&gt;&lt;b&gt;Shuffling&lt;/b&gt;&lt;/font&gt;" style="text;html=1;align=center;verticalAlign=middle;whiteSpace=wrap;rounded=0;" vertex="1" parent="1">
          <mxGeometry x="450" y="25" width="88" height="30" as="geometry" />
        </mxCell>
        <mxCell id="vd2-MDgw4LqcnlgiZA0H-16" value="&lt;font face=&quot;Verdana&quot;&gt;This-1&lt;/font&gt;" style="rounded=0;whiteSpace=wrap;html=1;strokeColor=#808080;fillColor=#FB8402;" vertex="1" parent="1">
          <mxGeometry x="454.5" y="55" width="79" height="31" as="geometry" />
        </mxCell>
        <mxCell id="vd2-MDgw4LqcnlgiZA0H-17" value="" style="endArrow=classic;html=1;rounded=0;" edge="1" parent="1">
          <mxGeometry width="50" height="50" relative="1" as="geometry">
            <mxPoint x="397" y="119" as="sourcePoint" />
            <mxPoint x="454.5" y="131" as="targetPoint" />
          </mxGeometry>
        </mxCell>
        <mxCell id="vd2-MDgw4LqcnlgiZA0H-18" value="" style="endArrow=classic;html=1;rounded=0;" edge="1" parent="1">
          <mxGeometry width="50" height="50" relative="1" as="geometry">
            <mxPoint x="402" y="291.5" as="sourcePoint" />
            <mxPoint x="449" y="166" as="targetPoint" />
          </mxGeometry>
        </mxCell>
        <mxCell id="vd2-MDgw4LqcnlgiZA0H-19" value="&lt;div&gt;&lt;font face=&quot;Verdana&quot;&gt;Is-1&lt;/font&gt;&lt;/div&gt;&lt;div&gt;&lt;font face=&quot;Verdana&quot;&gt;&lt;br&gt;&lt;/font&gt;&lt;/div&gt;&lt;div&gt;&lt;div&gt;&lt;font face=&quot;Verdana&quot;&gt;Is-1&lt;/font&gt;&lt;/div&gt;&lt;/div&gt;" style="rounded=0;whiteSpace=wrap;html=1;strokeColor=#808080;fillColor=#FB8402;" vertex="1" parent="1">
          <mxGeometry x="454.5" y="110" width="79" height="66" as="geometry" />
        </mxCell>
        <mxCell id="vd2-MDgw4LqcnlgiZA0H-20" value="&lt;font face=&quot;Verdana&quot;&gt;An-1&lt;/font&gt;" style="rounded=0;whiteSpace=wrap;html=1;strokeColor=#808080;fillColor=#FB8402;" vertex="1" parent="1">
          <mxGeometry x="454.5" y="197" width="79" height="31" as="geometry" />
        </mxCell>
        <mxCell id="vd2-MDgw4LqcnlgiZA0H-21" value="" style="endArrow=classic;html=1;rounded=0;" edge="1" parent="1">
          <mxGeometry width="50" height="50" relative="1" as="geometry">
            <mxPoint x="397.5" y="153" as="sourcePoint" />
            <mxPoint x="451" y="212" as="targetPoint" />
          </mxGeometry>
        </mxCell>
        <mxCell id="vd2-MDgw4LqcnlgiZA0H-23" value="&lt;div&gt;&lt;span style=&quot;font-family: Verdana; background-color: initial;&quot;&gt;Apple-&lt;/span&gt;&lt;span style=&quot;font-family: Verdana; background-color: initial;&quot;&gt;1&lt;/span&gt;&lt;/div&gt;&lt;div&gt;&lt;font face=&quot;Verdana&quot;&gt;&lt;br&gt;&lt;/font&gt;&lt;/div&gt;&lt;div&gt;&lt;div&gt;&lt;span style=&quot;font-family: Verdana; background-color: initial;&quot;&gt;Apple-&lt;/span&gt;&lt;font face=&quot;Verdana&quot;&gt;1&lt;/font&gt;&lt;/div&gt;&lt;/div&gt;" style="rounded=0;whiteSpace=wrap;html=1;strokeColor=#808080;fillColor=#FB8402;" vertex="1" parent="1">
          <mxGeometry x="454.5" y="253" width="79" height="66" as="geometry" />
        </mxCell>
        <mxCell id="vd2-MDgw4LqcnlgiZA0H-24" value="" style="endArrow=classic;html=1;rounded=0;" edge="1" parent="1">
          <mxGeometry width="50" height="50" relative="1" as="geometry">
            <mxPoint x="397.5" y="200" as="sourcePoint" />
            <mxPoint x="449" y="270" as="targetPoint" />
          </mxGeometry>
        </mxCell>
        <mxCell id="vd2-MDgw4LqcnlgiZA0H-25" value="" style="endArrow=classic;html=1;rounded=0;" edge="1" parent="1">
          <mxGeometry width="50" height="50" relative="1" as="geometry">
            <mxPoint x="399.5" y="308" as="sourcePoint" />
            <mxPoint x="454.5" y="291" as="targetPoint" />
          </mxGeometry>
        </mxCell>
        <mxCell id="vd2-MDgw4LqcnlgiZA0H-26" value="&lt;font face=&quot;Verdana&quot;&gt;Red-1&lt;/font&gt;" style="rounded=0;whiteSpace=wrap;html=1;strokeColor=#808080;fillColor=#FB8402;" vertex="1" parent="1">
          <mxGeometry x="454.5" y="341" width="79" height="31" as="geometry" />
        </mxCell>
        <mxCell id="vd2-MDgw4LqcnlgiZA0H-27" value="&lt;font face=&quot;Verdana&quot;&gt;In-1&lt;/font&gt;" style="rounded=0;whiteSpace=wrap;html=1;strokeColor=#808080;fillColor=#FB8402;" vertex="1" parent="1">
          <mxGeometry x="454.5" y="390" width="79" height="31" as="geometry" />
        </mxCell>
        <mxCell id="vd2-MDgw4LqcnlgiZA0H-28" value="&lt;font face=&quot;Verdana&quot;&gt;Color-1&lt;/font&gt;" style="rounded=0;whiteSpace=wrap;html=1;strokeColor=#808080;fillColor=#FB8402;" vertex="1" parent="1">
          <mxGeometry x="454.5" y="435" width="79" height="31" as="geometry" />
        </mxCell>
        <mxCell id="vd2-MDgw4LqcnlgiZA0H-29" value="" style="endArrow=classic;html=1;rounded=0;" edge="1" parent="1">
          <mxGeometry width="50" height="50" relative="1" as="geometry">
            <mxPoint x="396" y="339" as="sourcePoint" />
            <mxPoint x="453.5" y="351" as="targetPoint" />
          </mxGeometry>
        </mxCell>
        <mxCell id="vd2-MDgw4LqcnlgiZA0H-30" value="" style="endArrow=classic;html=1;rounded=0;" edge="1" parent="1">
          <mxGeometry width="50" height="50" relative="1" as="geometry">
            <mxPoint x="397.5" y="394" as="sourcePoint" />
            <mxPoint x="455" y="406" as="targetPoint" />
          </mxGeometry>
        </mxCell>
        <mxCell id="vd2-MDgw4LqcnlgiZA0H-32" value="" style="endArrow=classic;html=1;rounded=0;" edge="1" parent="1">
          <mxGeometry width="50" height="50" relative="1" as="geometry">
            <mxPoint x="397.5" y="436" as="sourcePoint" />
            <mxPoint x="455" y="448" as="targetPoint" />
          </mxGeometry>
        </mxCell>
        <mxCell id="vd2-MDgw4LqcnlgiZA0H-33" value="&lt;font face=&quot;Verdana&quot;&gt;&lt;b&gt;Reducing&lt;/b&gt;&lt;/font&gt;" style="text;html=1;align=center;verticalAlign=middle;whiteSpace=wrap;rounded=0;" vertex="1" parent="1">
          <mxGeometry x="583" y="25" width="88" height="30" as="geometry" />
        </mxCell>
        <mxCell id="vd2-MDgw4LqcnlgiZA0H-34" value="&lt;font face=&quot;Verdana&quot;&gt;This-1&lt;/font&gt;" style="rounded=0;whiteSpace=wrap;html=1;strokeColor=#808080;fillColor=#F19C99;" vertex="1" parent="1">
          <mxGeometry x="587.5" y="55" width="79" height="31" as="geometry" />
        </mxCell>
        <mxCell id="vd2-MDgw4LqcnlgiZA0H-35" value="&lt;font face=&quot;Verdana&quot;&gt;Is-2&lt;/font&gt;" style="rounded=0;whiteSpace=wrap;html=1;strokeColor=#808080;fillColor=#F19C99;" vertex="1" parent="1">
          <mxGeometry x="587.5" y="123" width="79" height="31" as="geometry" />
        </mxCell>
        <mxCell id="vd2-MDgw4LqcnlgiZA0H-36" value="" style="endArrow=classic;html=1;rounded=0;" edge="1" parent="1">
          <mxGeometry width="50" height="50" relative="1" as="geometry">
            <mxPoint x="535" y="72" as="sourcePoint" />
            <mxPoint x="585" y="70" as="targetPoint" />
          </mxGeometry>
        </mxCell>
        <mxCell id="vd2-MDgw4LqcnlgiZA0H-37" value="" style="endArrow=classic;html=1;rounded=0;" edge="1" parent="1">
          <mxGeometry width="50" height="50" relative="1" as="geometry">
            <mxPoint x="535.5" y="142" as="sourcePoint" />
            <mxPoint x="585.5" y="140" as="targetPoint" />
          </mxGeometry>
        </mxCell>
        <mxCell id="vd2-MDgw4LqcnlgiZA0H-38" value="&lt;font face=&quot;Verdana&quot;&gt;An-1&lt;/font&gt;" style="rounded=0;whiteSpace=wrap;html=1;strokeColor=#808080;fillColor=#F19C99;" vertex="1" parent="1">
          <mxGeometry x="587.5" y="197" width="79" height="31" as="geometry" />
        </mxCell>
        <mxCell id="vd2-MDgw4LqcnlgiZA0H-39" value="" style="endArrow=classic;html=1;rounded=0;" edge="1" parent="1">
          <mxGeometry width="50" height="50" relative="1" as="geometry">
            <mxPoint x="535.5" y="213.5" as="sourcePoint" />
            <mxPoint x="585.5" y="211.5" as="targetPoint" />
          </mxGeometry>
        </mxCell>
        <mxCell id="vd2-MDgw4LqcnlgiZA0H-40" value="&lt;font face=&quot;Verdana&quot;&gt;Apple-2&lt;/font&gt;" style="rounded=0;whiteSpace=wrap;html=1;strokeColor=#808080;fillColor=#F19C99;" vertex="1" parent="1">
          <mxGeometry x="590" y="268" width="79" height="31" as="geometry" />
        </mxCell>
        <mxCell id="vd2-MDgw4LqcnlgiZA0H-41" value="" style="endArrow=classic;html=1;rounded=0;" edge="1" parent="1">
          <mxGeometry width="50" height="50" relative="1" as="geometry">
            <mxPoint x="537.5" y="287" as="sourcePoint" />
            <mxPoint x="587.5" y="285" as="targetPoint" />
          </mxGeometry>
        </mxCell>
        <mxCell id="vd2-MDgw4LqcnlgiZA0H-42" value="&lt;font face=&quot;Verdana&quot;&gt;Red-1&lt;/font&gt;" style="rounded=0;whiteSpace=wrap;html=1;strokeColor=#808080;fillColor=#F19C99;" vertex="1" parent="1">
          <mxGeometry x="590" y="334" width="79" height="31" as="geometry" />
        </mxCell>
        <mxCell id="vd2-MDgw4LqcnlgiZA0H-43" value="&lt;font face=&quot;Verdana&quot;&gt;In-1&lt;/font&gt;" style="rounded=0;whiteSpace=wrap;html=1;strokeColor=#808080;fillColor=#F19C99;" vertex="1" parent="1">
          <mxGeometry x="590" y="383" width="79" height="31" as="geometry" />
        </mxCell>
        <mxCell id="vd2-MDgw4LqcnlgiZA0H-44" value="&lt;font face=&quot;Verdana&quot;&gt;Color-1&lt;/font&gt;" style="rounded=0;whiteSpace=wrap;html=1;strokeColor=#808080;fillColor=#F19C99;" vertex="1" parent="1">
          <mxGeometry x="590" y="428" width="79" height="31" as="geometry" />
        </mxCell>
        <mxCell id="vd2-MDgw4LqcnlgiZA0H-45" value="" style="endArrow=classic;html=1;rounded=0;" edge="1" parent="1">
          <mxGeometry width="50" height="50" relative="1" as="geometry">
            <mxPoint x="538" y="354" as="sourcePoint" />
            <mxPoint x="588" y="352" as="targetPoint" />
          </mxGeometry>
        </mxCell>
        <mxCell id="vd2-MDgw4LqcnlgiZA0H-46" value="" style="endArrow=classic;html=1;rounded=0;" edge="1" parent="1">
          <mxGeometry width="50" height="50" relative="1" as="geometry">
            <mxPoint x="537.5" y="406.5" as="sourcePoint" />
            <mxPoint x="587.5" y="404.5" as="targetPoint" />
          </mxGeometry>
        </mxCell>
        <mxCell id="vd2-MDgw4LqcnlgiZA0H-47" value="" style="endArrow=classic;html=1;rounded=0;" edge="1" parent="1">
          <mxGeometry width="50" height="50" relative="1" as="geometry">
            <mxPoint x="538" y="451.5" as="sourcePoint" />
            <mxPoint x="588" y="449.5" as="targetPoint" />
          </mxGeometry>
        </mxCell>
        <mxCell id="vd2-MDgw4LqcnlgiZA0H-48" value="&lt;span style=&quot;font-family: Verdana;&quot;&gt;This-1&lt;/span&gt;&lt;div&gt;&lt;span style=&quot;font-family: Verdana;&quot;&gt;&lt;br&gt;&lt;/span&gt;&lt;/div&gt;&lt;div&gt;&lt;span style=&quot;font-family: Verdana;&quot;&gt;Is-2&lt;/span&gt;&lt;span style=&quot;font-family: Verdana;&quot;&gt;&lt;br&gt;&lt;/span&gt;&lt;/div&gt;&lt;div&gt;&lt;span style=&quot;font-family: Verdana;&quot;&gt;&lt;br&gt;&lt;/span&gt;&lt;/div&gt;&lt;div&gt;&lt;span style=&quot;font-family: Verdana;&quot;&gt;An-1&lt;/span&gt;&lt;span style=&quot;font-family: Verdana;&quot;&gt;&lt;br&gt;&lt;/span&gt;&lt;/div&gt;&lt;div&gt;&lt;span style=&quot;font-family: Verdana;&quot;&gt;&lt;br&gt;&lt;/span&gt;&lt;/div&gt;&lt;div&gt;&lt;span style=&quot;font-family: Verdana;&quot;&gt;Apple-2&lt;/span&gt;&lt;span style=&quot;font-family: Verdana;&quot;&gt;&lt;br&gt;&lt;/span&gt;&lt;/div&gt;&lt;div&gt;&lt;span style=&quot;font-family: Verdana;&quot;&gt;&lt;br&gt;&lt;/span&gt;&lt;/div&gt;&lt;div&gt;&lt;span style=&quot;font-family: Verdana;&quot;&gt;Red-1&lt;/span&gt;&lt;span style=&quot;font-family: Verdana;&quot;&gt;&lt;br&gt;&lt;/span&gt;&lt;/div&gt;&lt;div&gt;&lt;span style=&quot;font-family: Verdana;&quot;&gt;&lt;br&gt;&lt;/span&gt;&lt;/div&gt;&lt;div&gt;&lt;span style=&quot;font-family: Verdana;&quot;&gt;In-1&lt;/span&gt;&lt;span style=&quot;font-family: Verdana;&quot;&gt;&lt;br&gt;&lt;/span&gt;&lt;/div&gt;&lt;div&gt;&lt;span style=&quot;font-family: Verdana;&quot;&gt;&lt;br&gt;&lt;/span&gt;&lt;/div&gt;&lt;div&gt;&lt;span style=&quot;font-family: Verdana;&quot;&gt;Color-1&lt;/span&gt;&lt;span style=&quot;font-family: Verdana;&quot;&gt;&lt;br&gt;&lt;/span&gt;&lt;/div&gt;" style="rounded=0;whiteSpace=wrap;html=1;strokeColor=#808080;fillColor=#67AB9F;" vertex="1" parent="1">
          <mxGeometry x="728" y="133" width="80" height="278" as="geometry" />
        </mxCell>
        <mxCell id="vd2-MDgw4LqcnlgiZA0H-49" value="&lt;font face=&quot;Verdana&quot;&gt;&lt;b&gt;Output&lt;/b&gt;&lt;/font&gt;" style="text;html=1;align=center;verticalAlign=middle;whiteSpace=wrap;rounded=0;" vertex="1" parent="1">
          <mxGeometry x="726" y="105" width="88" height="30" as="geometry" />
        </mxCell>
        <mxCell id="vd2-MDgw4LqcnlgiZA0H-50" value="" style="endArrow=classic;html=1;rounded=0;" edge="1" parent="1">
          <mxGeometry width="50" height="50" relative="1" as="geometry">
            <mxPoint x="671" y="69" as="sourcePoint" />
            <mxPoint x="725" y="146" as="targetPoint" />
          </mxGeometry>
        </mxCell>
        <mxCell id="vd2-MDgw4LqcnlgiZA0H-51" value="" style="endArrow=classic;html=1;rounded=0;" edge="1" parent="1">
          <mxGeometry width="50" height="50" relative="1" as="geometry">
            <mxPoint x="669" y="138" as="sourcePoint" />
            <mxPoint x="723" y="215" as="targetPoint" />
          </mxGeometry>
        </mxCell>
        <mxCell id="vd2-MDgw4LqcnlgiZA0H-52" value="" style="endArrow=classic;html=1;rounded=0;" edge="1" parent="1">
          <mxGeometry width="50" height="50" relative="1" as="geometry">
            <mxPoint x="668.5" y="216" as="sourcePoint" />
            <mxPoint x="726" y="228" as="targetPoint" />
          </mxGeometry>
        </mxCell>
        <mxCell id="vd2-MDgw4LqcnlgiZA0H-54" value="" style="endArrow=classic;html=1;rounded=0;" edge="1" parent="1">
          <mxGeometry width="50" height="50" relative="1" as="geometry">
            <mxPoint x="670.5" y="284" as="sourcePoint" />
            <mxPoint x="723" y="284" as="targetPoint" />
          </mxGeometry>
        </mxCell>
        <mxCell id="vd2-MDgw4LqcnlgiZA0H-55" value="" style="endArrow=classic;html=1;rounded=0;" edge="1" parent="1">
          <mxGeometry width="50" height="50" relative="1" as="geometry">
            <mxPoint x="671" y="345" as="sourcePoint" />
            <mxPoint x="723" y="318" as="targetPoint" />
          </mxGeometry>
        </mxCell>
        <mxCell id="vd2-MDgw4LqcnlgiZA0H-56" value="" style="endArrow=classic;html=1;rounded=0;" edge="1" parent="1">
          <mxGeometry width="50" height="50" relative="1" as="geometry">
            <mxPoint x="671" y="392" as="sourcePoint" />
            <mxPoint x="723" y="365" as="targetPoint" />
          </mxGeometry>
        </mxCell>
        <mxCell id="vd2-MDgw4LqcnlgiZA0H-57" value="" style="endArrow=classic;html=1;rounded=0;" edge="1" parent="1">
          <mxGeometry width="50" height="50" relative="1" as="geometry">
            <mxPoint x="671" y="444" as="sourcePoint" />
            <mxPoint x="723" y="386" as="targetPoint" />
          </mxGeometry>
        </mxCell>
      </root>
    </mxGraphModel>
  </diagram>
</mxfile>
